<?xml version="1.0" encoding="UTF-8"?>
<svg width="700pt" height="700pt" version="1.1" viewBox="0 0 700 700" xmlns="http://www.w3.org/2000/svg" xmlns:xlink="http://www.w3.org/1999/xlink">
 <defs>
  <symbol id="v" overflow="visible">
   <path d="m3.6562-0.21875c-0.1875 0.09375-0.38672 0.16797-0.59375 0.21875-0.19922 0.050781-0.40625 0.078125-0.625 0.078125-0.66797 0-1.1992-0.17969-1.5938-0.54688-0.38672-0.375-0.57812-0.87891-0.57812-1.5156 0-0.64453 0.19141-1.1484 0.57812-1.5156 0.39453-0.375 0.92578-0.5625 1.5938-0.5625 0.21875 0 0.42578 0.027344 0.625 0.078125 0.20703 0.054687 0.40625 0.125 0.59375 0.21875v0.82812c-0.1875-0.125-0.375-0.21875-0.5625-0.28125-0.17969-0.0625-0.37109-0.09375-0.57812-0.09375-0.36719 0-0.65625 0.12109-0.875 0.35938-0.21094 0.23047-0.3125 0.55469-0.3125 0.96875 0 0.40625 0.10156 0.73047 0.3125 0.96875 0.21875 0.23047 0.50781 0.34375 0.875 0.34375 0.20703 0 0.39844-0.023437 0.57812-0.078125 0.1875-0.0625 0.375-0.16016 0.5625-0.29688z"/>
  </symbol>
  <symbol id="c" overflow="visible">
   <path d="m2.6875-2.1719c-0.085938-0.039063-0.16797-0.070313-0.25-0.09375-0.085938-0.019531-0.16797-0.03125-0.25-0.03125-0.25 0-0.44531 0.085937-0.57812 0.25-0.125 0.15625-0.1875 0.38281-0.1875 0.67188v1.375h-0.96875v-2.9844h0.96875v0.48438c0.11328-0.19531 0.25-0.33594 0.40625-0.42188 0.16406-0.09375 0.35938-0.14062 0.57812-0.14062h0.10938c0.039063 0 0.09375 0.007812 0.15625 0.015625z"/>
  </symbol>
  <symbol id="b" overflow="visible">
   <path d="m3.4375-1.5v0.26562h-2.2344c0.03125 0.23047 0.11328 0.40234 0.25 0.51562 0.13281 0.10547 0.32812 0.15625 0.57812 0.15625 0.20703 0 0.41406-0.023438 0.625-0.078125 0.20703-0.0625 0.42188-0.15625 0.64062-0.28125v0.73438c-0.21875 0.09375-0.44531 0.16406-0.67188 0.20312-0.23047 0.039062-0.45312 0.0625-0.67188 0.0625-0.54297 0-0.96484-0.13281-1.2656-0.40625-0.30469-0.28125-0.45312-0.67188-0.45312-1.1719 0-0.47656 0.14453-0.85938 0.4375-1.1406 0.30078-0.28125 0.70703-0.42188 1.2188-0.42188 0.46875 0 0.84375 0.14062 1.125 0.42188s0.42188 0.66406 0.42188 1.1406zm-0.96875-0.32812c0-0.17578-0.058594-0.31641-0.17188-0.42188-0.10547-0.11328-0.24219-0.17188-0.40625-0.17188-0.1875 0-0.33984 0.054687-0.45312 0.15625-0.11719 0.10547-0.1875 0.25-0.21875 0.4375z"/>
  </symbol>
  <symbol id="f" overflow="visible">
   <path d="m1.7969-1.3438c-0.19922 0-0.35156 0.039062-0.45312 0.10938-0.09375 0.0625-0.14062 0.16406-0.14062 0.29688 0 0.11719 0.035156 0.21094 0.10938 0.28125 0.082031 0.0625 0.19531 0.09375 0.34375 0.09375 0.17578 0 0.32812-0.0625 0.45312-0.1875s0.1875-0.28516 0.1875-0.48438v-0.10938zm1.4688-0.35938v1.7031h-0.96875v-0.4375c-0.125 0.17969-0.27344 0.30859-0.4375 0.39062-0.15625 0.082031-0.35156 0.125-0.57812 0.125-0.3125 0-0.57031-0.085938-0.76562-0.26562-0.1875-0.1875-0.28125-0.42188-0.28125-0.70312 0-0.35156 0.11719-0.61328 0.35938-0.78125 0.23828-0.16406 0.61719-0.25 1.1406-0.25h0.5625v-0.0625c0-0.15625-0.0625-0.26562-0.1875-0.32812-0.11719-0.070312-0.29688-0.10938-0.54688-0.10938-0.21094 0-0.40234 0.023437-0.57812 0.0625-0.17969 0.042969-0.33984 0.10156-0.48438 0.17188v-0.71875c0.19531-0.050781 0.39844-0.085938 0.60938-0.10938 0.20703-0.03125 0.41406-0.046875 0.625-0.046875 0.53906 0 0.92969 0.10938 1.1719 0.32812 0.23828 0.21094 0.35938 0.55469 0.35938 1.0312z"/>
  </symbol>
  <symbol id="d" overflow="visible">
   <path d="m1.5-3.8438v0.85938h0.98438v0.67188h-0.98438v1.2812c0 0.13672 0.023438 0.23047 0.078125 0.28125 0.0625 0.042969 0.17578 0.0625 0.34375 0.0625h0.48438v0.6875h-0.8125c-0.38672 0-0.65625-0.078125-0.8125-0.23438s-0.23438-0.42188-0.23438-0.79688v-1.2812h-0.46875v-0.67188h0.46875v-0.85938z"/>
  </symbol>
  <symbol id="j" overflow="visible">
   <path d="m2.5-2.5469v-1.6094h0.95312v4.1562h-0.95312v-0.4375c-0.13672 0.17969-0.28125 0.30859-0.4375 0.39062-0.15625 0.082031-0.33984 0.125-0.54688 0.125-0.375 0-0.68359-0.14453-0.92188-0.4375-0.23047-0.28906-0.34375-0.67188-0.34375-1.1406 0-0.45703 0.11328-0.83203 0.34375-1.125 0.23828-0.28906 0.54688-0.4375 0.92188-0.4375 0.19531 0 0.375 0.042969 0.53125 0.125 0.16406 0.085938 0.31641 0.21484 0.45312 0.39062zm-0.64062 1.9375c0.20703 0 0.36328-0.070313 0.46875-0.21875 0.11328-0.15625 0.17188-0.37891 0.17188-0.67188 0-0.28125-0.058594-0.49219-0.17188-0.64062-0.10547-0.15625-0.26172-0.23438-0.46875-0.23438-0.19922 0-0.35547 0.078125-0.46875 0.23438-0.10547 0.14844-0.15625 0.35938-0.15625 0.64062 0 0.29297 0.050781 0.51562 0.15625 0.67188 0.11328 0.14844 0.26953 0.21875 0.46875 0.21875z"/>
  </symbol>
  <symbol id="i" overflow="visible">
   <path d="m2.0469-0.60938c0.20703 0 0.36328-0.070313 0.46875-0.21875 0.11328-0.15625 0.17188-0.37891 0.17188-0.67188 0-0.28125-0.058594-0.49219-0.17188-0.64062-0.10547-0.15625-0.26172-0.23438-0.46875-0.23438-0.19922 0-0.35547 0.078125-0.46875 0.23438-0.10547 0.14844-0.15625 0.35938-0.15625 0.64062 0 0.29297 0.050781 0.51562 0.15625 0.67188 0.11328 0.14844 0.26953 0.21875 0.46875 0.21875zm-0.625-1.9375c0.125-0.17578 0.26562-0.30469 0.42188-0.39062 0.16406-0.082031 0.35156-0.125 0.5625-0.125 0.36328 0 0.66406 0.14844 0.90625 0.4375 0.23828 0.29297 0.35938 0.66797 0.35938 1.125 0 0.46875-0.12109 0.85156-0.35938 1.1406-0.24219 0.29297-0.54297 0.4375-0.90625 0.4375-0.21094 0-0.39844-0.042969-0.5625-0.125-0.15625-0.082031-0.29688-0.21094-0.42188-0.39062v0.4375h-0.96875v-4.1562h0.96875z"/>
  </symbol>
  <symbol id="h" overflow="visible">
   <path d="m0.0625-2.9844h0.95312l0.8125 2.0156 0.6875-2.0156h0.95312l-1.2656 3.2656c-0.125 0.33203-0.27344 0.56641-0.4375 0.70312-0.16797 0.13281-0.39062 0.20312-0.67188 0.20312h-0.54688v-0.64062h0.29688c0.16406 0 0.28516-0.027344 0.35938-0.078125 0.070313-0.054688 0.12891-0.14062 0.17188-0.26562l0.03125-0.09375z"/>
  </symbol>
  <symbol id="g" overflow="visible">
   <path d="m1.4219-0.4375v1.5781h-0.96875v-4.125h0.96875v0.4375c0.125-0.17578 0.26562-0.30469 0.42188-0.39062 0.16406-0.082031 0.35156-0.125 0.5625-0.125 0.36328 0 0.66406 0.14844 0.90625 0.4375 0.23828 0.29297 0.35938 0.66797 0.35938 1.125 0 0.46875-0.12109 0.85156-0.35938 1.1406-0.24219 0.29297-0.54297 0.4375-0.90625 0.4375-0.21094 0-0.39844-0.042969-0.5625-0.125-0.15625-0.082031-0.29688-0.21094-0.42188-0.39062zm0.625-1.9375c-0.19922 0-0.35547 0.078125-0.46875 0.23438-0.10547 0.14844-0.15625 0.35938-0.15625 0.64062 0 0.29297 0.050781 0.51562 0.15625 0.67188 0.11328 0.14844 0.26953 0.21875 0.46875 0.21875 0.20703 0 0.36328-0.070313 0.46875-0.21875 0.11328-0.15625 0.17188-0.37891 0.17188-0.67188 0-0.28125-0.058594-0.49219-0.17188-0.64062-0.10547-0.15625-0.26172-0.23438-0.46875-0.23438z"/>
  </symbol>
  <symbol id="a" overflow="visible">
   <path d="m1.875-2.375c-0.21094 0-0.37109 0.078125-0.48438 0.23438-0.10547 0.14844-0.15625 0.35938-0.15625 0.64062 0 0.29297 0.050781 0.51562 0.15625 0.67188 0.11328 0.14844 0.27344 0.21875 0.48438 0.21875 0.20703 0 0.36719-0.070313 0.48438-0.21875 0.11328-0.15625 0.17188-0.37891 0.17188-0.67188 0-0.28125-0.058594-0.49219-0.17188-0.64062-0.11719-0.15625-0.27734-0.23438-0.48438-0.23438zm0-0.6875c0.51953 0 0.92188 0.14062 1.2031 0.42188 0.28906 0.27344 0.4375 0.65234 0.4375 1.1406 0 0.5-0.14844 0.89062-0.4375 1.1719-0.28125 0.27344-0.68359 0.40625-1.2031 0.40625-0.51172 0-0.91406-0.13281-1.2031-0.40625-0.29297-0.28125-0.4375-0.67188-0.4375-1.1719 0-0.48828 0.14453-0.86719 0.4375-1.1406 0.28906-0.28125 0.69141-0.42188 1.2031-0.42188z"/>
  </symbol>
  <symbol id="e" overflow="visible">
   <path d="m3.4688-1.8281v1.8281h-0.96875v-1.3906c0-0.25781-0.007812-0.4375-0.015625-0.53125-0.011719-0.10156-0.03125-0.17578-0.0625-0.21875-0.03125-0.0625-0.085937-0.10938-0.15625-0.14062-0.0625-0.039062-0.13281-0.0625-0.20312-0.0625-0.21094 0-0.37109 0.078125-0.48438 0.23438-0.10547 0.15625-0.15625 0.37109-0.15625 0.64062v1.4688h-0.96875v-2.9844h0.96875v0.4375c0.13281-0.17578 0.28516-0.30469 0.45312-0.39062 0.16406-0.082031 0.34375-0.125 0.53125-0.125 0.34375 0 0.60156 0.10938 0.78125 0.32812 0.1875 0.21094 0.28125 0.51172 0.28125 0.90625z"/>
  </symbol>
  <symbol id="u" overflow="visible">
   <path d="m2.5-0.5c-0.13672 0.16797-0.28125 0.29297-0.4375 0.375-0.15625 0.085938-0.33984 0.125-0.54688 0.125-0.36719 0-0.66797-0.14062-0.90625-0.42188-0.24219-0.28906-0.35938-0.66016-0.35938-1.1094 0-0.44531 0.11719-0.8125 0.35938-1.0938 0.23828-0.28906 0.53906-0.4375 0.90625-0.4375 0.20703 0 0.39062 0.042969 0.54688 0.125 0.15625 0.085938 0.30078 0.21484 0.4375 0.39062v-0.4375h0.95312v2.6875c0 0.47656-0.15234 0.84375-0.45312 1.0938-0.30469 0.25781-0.74609 0.39062-1.3281 0.39062-0.17969 0-0.35547-0.015625-0.53125-0.046875-0.17969-0.03125-0.35547-0.078125-0.53125-0.14062v-0.73438c0.16406 0.09375 0.32812 0.16016 0.48438 0.20312 0.16406 0.050781 0.33203 0.078125 0.5 0.078125 0.3125 0 0.53906-0.070313 0.6875-0.20312 0.14453-0.13672 0.21875-0.34766 0.21875-0.64062zm-0.64062-1.875c-0.19922 0-0.35547 0.074219-0.46875 0.21875-0.10547 0.14844-0.15625 0.35547-0.15625 0.625 0 0.27344 0.050781 0.48047 0.15625 0.625 0.11328 0.14844 0.26953 0.21875 0.46875 0.21875 0.19531 0 0.35156-0.070312 0.46875-0.21875 0.11328-0.14453 0.17188-0.35156 0.17188-0.625 0-0.26953-0.058594-0.47656-0.17188-0.625-0.11719-0.14453-0.27344-0.21875-0.46875-0.21875z"/>
  </symbol>
  <symbol id="t" overflow="visible">
   <path d="m2.7969-2.8906v0.71875c-0.21094-0.082031-0.40625-0.14453-0.59375-0.1875-0.1875-0.039063-0.37109-0.0625-0.54688-0.0625-0.17969 0-0.3125 0.023437-0.40625 0.0625-0.085938 0.042969-0.125 0.10938-0.125 0.20312 0 0.085938 0.03125 0.14844 0.09375 0.1875 0.070312 0.042969 0.19531 0.074219 0.375 0.09375l0.15625 0.015625c0.48828 0.0625 0.81641 0.16797 0.98438 0.3125 0.17578 0.13672 0.26562 0.35938 0.26562 0.67188s-0.12109 0.55469-0.35938 0.71875c-0.23047 0.15625-0.57812 0.23438-1.0469 0.23438-0.19922 0-0.40625-0.015625-0.625-0.046875-0.21094-0.03125-0.42188-0.078125-0.64062-0.14062v-0.71875c0.1875 0.085937 0.37891 0.15234 0.57812 0.20312 0.20703 0.042969 0.41406 0.0625 0.625 0.0625 0.1875 0 0.32812-0.023438 0.42188-0.078125 0.09375-0.050781 0.14062-0.125 0.14062-0.21875s-0.039062-0.16016-0.10938-0.20312c-0.0625-0.039062-0.1875-0.070312-0.375-0.09375l-0.17188-0.015625c-0.42969-0.050781-0.73047-0.14844-0.90625-0.29688-0.16797-0.14453-0.25-0.36328-0.25-0.65625 0-0.32031 0.10938-0.55469 0.32812-0.70312 0.21875-0.15625 0.55078-0.23438 1-0.23438 0.17578 0 0.35938 0.015625 0.54688 0.046875 0.19531 0.023437 0.41016 0.0625 0.64062 0.125z"/>
  </symbol>
  <symbol id="s" overflow="visible">
   <path d="m0.45312-4.1562h0.96875v2.2656l1.0938-1.0938h1.1094l-1.4531 1.3594 1.5625 1.625h-1.1562l-1.1562-1.25v1.25h-0.96875z"/>
  </symbol>
  <symbol id="r" overflow="visible">
   <path d="m2.4219-4.1562v0.625h-0.51562c-0.13672 0-0.23438 0.027344-0.29688 0.078125-0.054687 0.054687-0.078125 0.13672-0.078125 0.25v0.21875h0.82812v0.67188h-0.82812v2.3125h-0.95312v-2.3125h-0.46875v-0.67188h0.46875v-0.21875c0-0.32031 0.085937-0.5625 0.26562-0.71875 0.1875-0.15625 0.47266-0.23438 0.85938-0.23438z"/>
  </symbol>
  <symbol id="q" overflow="visible">
   <path d="m3.2344-2.5c0.11328-0.17578 0.25391-0.3125 0.42188-0.40625 0.16406-0.10156 0.35156-0.15625 0.5625-0.15625 0.33203 0 0.58594 0.10938 0.76562 0.32812 0.1875 0.21094 0.28125 0.51172 0.28125 0.90625v1.8281h-0.96875v-1.5625c0.007813-0.019531 0.015625-0.039062 0.015625-0.0625v-0.10938c0-0.21875-0.03125-0.375-0.09375-0.46875s-0.16406-0.14062-0.29688-0.14062c-0.1875 0-0.33594 0.078125-0.4375 0.23438-0.09375 0.14844-0.14062 0.35938-0.14062 0.64062v1.4688h-0.96875v-1.5625c0-0.33203-0.03125-0.54688-0.09375-0.64062-0.054688-0.09375-0.15234-0.14062-0.29688-0.14062-0.17969 0-0.32031 0.078125-0.42188 0.23438-0.09375 0.14844-0.14062 0.35938-0.14062 0.64062v1.4688h-0.96875v-2.9844h0.96875v0.4375c0.11328-0.17578 0.24219-0.30469 0.39062-0.39062 0.15625-0.082031 0.32812-0.125 0.51562-0.125 0.20703 0 0.39062 0.054688 0.54688 0.15625 0.15625 0.09375 0.27344 0.23047 0.35938 0.40625z"/>
  </symbol>
  <symbol id="p" overflow="visible">
   <path d="m3.4688-1.8281v1.8281h-0.96875v-1.3906c0-0.25781-0.007812-0.4375-0.015625-0.53125-0.011719-0.10156-0.03125-0.17578-0.0625-0.21875-0.03125-0.0625-0.085937-0.10938-0.15625-0.14062-0.0625-0.039062-0.13281-0.0625-0.20312-0.0625-0.21094 0-0.37109 0.078125-0.48438 0.23438-0.10547 0.15625-0.15625 0.37109-0.15625 0.64062v1.4688h-0.96875v-4.1562h0.96875v1.6094c0.13281-0.17578 0.28516-0.30469 0.45312-0.39062 0.16406-0.082031 0.34375-0.125 0.53125-0.125 0.34375 0 0.60156 0.10938 0.78125 0.32812 0.1875 0.21094 0.28125 0.51172 0.28125 0.90625z"/>
  </symbol>
  <symbol id="o" overflow="visible">
   <path d="m0.5-3.9844h1.1562l1.4375 2.7344v-2.7344h0.98438v3.9844h-1.1562l-1.4375-2.7344v2.7344h-0.98438z"/>
  </symbol>
  <symbol id="n" overflow="visible">
   <path d="m0.42188-1.1719v-1.8125h0.96875v0.29688 0.60938 0.48438c0 0.24219 0.003906 0.41797 0.015625 0.53125 0.007812 0.10547 0.03125 0.17969 0.0625 0.21875 0.039062 0.0625 0.09375 0.11719 0.15625 0.15625 0.0625 0.03125 0.13281 0.046875 0.21875 0.046875 0.19531 0 0.35156-0.078125 0.46875-0.23438 0.11328-0.15625 0.17188-0.36719 0.17188-0.64062v-1.4688h0.95312v2.9844h-0.95312v-0.4375c-0.14844 0.17969-0.30469 0.30859-0.46875 0.39062-0.15625 0.082031-0.33594 0.125-0.53125 0.125-0.34375 0-0.60938-0.10156-0.79688-0.3125-0.17969-0.21875-0.26562-0.53125-0.26562-0.9375z"/>
  </symbol>
  <symbol id="m" overflow="visible">
   <path d="m0.5-3.9844h1.7031c0.50781 0 0.89844 0.11719 1.1719 0.34375 0.26953 0.21875 0.40625 0.53906 0.40625 0.95312 0 0.41797-0.13672 0.74219-0.40625 0.96875-0.27344 0.21875-0.66406 0.32812-1.1719 0.32812h-0.67188v1.3906h-1.0312zm1.0312 0.75v1.1094h0.5625c0.19531 0 0.34766-0.046875 0.45312-0.14062 0.11328-0.10156 0.17188-0.24219 0.17188-0.42188 0-0.17578-0.058594-0.3125-0.17188-0.40625-0.10547-0.09375-0.25781-0.14062-0.45312-0.14062z"/>
  </symbol>
  <symbol id="l" overflow="visible">
   <path d="m0.45312-2.9844h0.96875v2.9375c0 0.39453-0.10156 0.69531-0.29688 0.90625-0.1875 0.21875-0.46484 0.32812-0.82812 0.32812h-0.48438v-0.64062h0.17188c0.17578 0 0.29688-0.042969 0.35938-0.125 0.070312-0.074219 0.10938-0.23047 0.10938-0.46875zm0-1.1719h0.96875v0.78125h-0.96875z"/>
  </symbol>
  <symbol id="k" overflow="visible">
   <path d="m2.875-2.8906v0.76562c-0.125-0.082031-0.25781-0.14453-0.39062-0.1875-0.13672-0.039062-0.27344-0.0625-0.40625-0.0625-0.27344 0-0.48047 0.078125-0.625 0.23438-0.14844 0.15625-0.21875 0.37109-0.21875 0.64062 0 0.28125 0.070313 0.5 0.21875 0.65625 0.14453 0.15625 0.35156 0.23438 0.625 0.23438 0.14453 0 0.28516-0.019531 0.42188-0.0625 0.13281-0.039063 0.25781-0.10938 0.375-0.20312v0.78125c-0.14844 0.0625-0.29688 0.10156-0.45312 0.125-0.15625 0.03125-0.3125 0.046875-0.46875 0.046875-0.54297 0-0.96484-0.13281-1.2656-0.40625-0.30469-0.28125-0.45312-0.67188-0.45312-1.1719 0-0.48828 0.14844-0.86719 0.45312-1.1406 0.30078-0.28125 0.72266-0.42188 1.2656-0.42188 0.15625 0 0.3125 0.015625 0.46875 0.046875 0.15625 0.023437 0.30469 0.0625 0.45312 0.125z"/>
  </symbol>
 </defs>
 <g>
  <path d="m531.9 90.762c1.8516-15.203 1.8516-18.793 1.8516-20.16 0.011719-13.531-3.9922-26.762-11.508-38.016l-4.0742-6.1133h-0.003907c-3.2188-4.832-8.3672-8.0352-14.121-8.7969-5.7539-0.76172-11.559 0.99609-15.922 4.8203-4.3672 3.8242-6.8711 9.3477-6.8711 15.152v12.785c0 0.71875-0.042969 1.4297-0.10938 2.1367-5.8789-3.3945-11.879-6.5625-18.004-9.5-1.6367-6.9453-6.5664-12.652-13.199-15.285-6.6367-2.6289-14.137-1.8516-20.09 2.0859-51.953-16.496-107.74-16.496-159.7 0-5.9531-3.9375-13.453-4.7148-20.09-2.0859-6.6328 2.6328-11.562 8.3398-13.199 15.285-6.1094 2.9219-12.109 6.0898-18.004 9.5-0.066406-0.70703-0.10938-1.4141-0.10938-2.1367v-12.785c0-5.8047-2.5-11.328-6.8672-15.156-4.3672-3.8242-10.168-5.582-15.926-4.8203-5.7539 0.76172-10.902 3.9648-14.121 8.7969l-4.0781 6.1133c-7.5156 11.254-11.52 24.484-11.508 38.02 0 1.3711 0 4.957 1.8516 20.164v-0.003906c-41.871 40.25-69.211 93.25-77.738 150.7-8.5273 57.449 2.2383 116.11 30.613 166.78 28.375 50.676 72.754 90.512 126.19 113.27 53.438 22.754 112.91 27.145 169.11 12.484 56.199-14.664 105.95-47.551 141.45-93.512 35.508-45.961 54.77-102.4 54.77-160.48 0.046875-35.352-7.0742-70.348-20.926-102.87-13.855-32.523-34.156-61.902-59.676-86.367zm-33.148-53.113c0-1.168 0.76562-2.1953 1.8828-2.5352 1.1172-0.33594 2.3242 0.09375 2.9727 1.0664l4.0742 6.1133c5.5977 8.3789 8.5781 18.23 8.5703 28.309 0 2.1875-0.46875 9.332-3.6094 32.68v-0.003906c-1.0586 7.7344-4.8789 14.824-10.75 19.961-5.875 5.1406-13.406 7.9883-21.211 8.0117-4.4883-0.007812-8.7891-1.793-11.965-4.9648-3.1719-3.1758-4.957-7.4766-4.9648-11.965v-7.2539c-0.015625-4.2578 1.1641-8.4336 3.4023-12.055 2.2383-3.6211 5.4453-6.543 9.2617-8.4375 6.7266-3.3359 12.387-8.4883 16.336-14.875 3.9453-6.3906 6.0234-13.754 6-21.266zm-61.25 321.1h-17.5v-8.75c0-2.7539-1.2969-5.3477-3.5-7l-21.148-15.859c1.9727-0.92969 3.8906-1.9727 5.7383-3.1289l5.3945-3.3711 31.016 24.816zm-70 105v3.3359c-5.6641 2.7617-11.512 5.1328-17.5 7.1016v-10.438zm-35 14.977c-8.6523 1.668-17.441 2.5156-26.25 2.5234l13.371-17.828c1.3633 0.21875 2.7461 0.32812 4.1289 0.32812h8.75zm-95.848-242.48c0.50781 5.9062 1.5156 11.762 3.0117 17.5h-29.664c-2.3203 0-4.5469 0.92188-6.1875 2.5625l-35 35c-1.1211 1.1211-1.9141 2.5273-2.2969 4.0664l-5 20.008-11.824-11.82 6.9609-27.844 39.473-39.473zm-26.652-88.391c3.0703 0.58984 6.1914 0.89062 9.3203 0.89062 2.7539 0 5.5039-0.32812 8.1797-0.98438v9.7344c0 2.7539 1.2969 5.3477 3.5 7l19.535 14.656c-4.2969 5.0977-7.7227 10.867-10.145 17.074l-30.391-25.328zm113.75 9.6406h-17.5v-8.75c0-4.832 3.918-8.75 8.75-8.75s8.75 3.918 8.75 8.75zm-26.781 17.5h106.07-0.003906c11.461 0.011719 22.445 4.5703 30.547 12.672s12.66 19.086 12.672 30.547v8.8906c0.09375 29.91-15.324 57.727-40.738 73.5l-13.695 8.5625h-0.003906c-6.0898 3.8086-13.133 5.8281-20.316 5.8281h-42.984c-7.1875 0-14.23-2.0156-20.32-5.8281l-13.695-8.5586h-0.003906c-25.414-15.773-40.836-43.594-40.742-73.504v-8.8906c0.011719-11.461 4.5703-22.445 12.672-30.547s19.086-12.66 30.547-12.672zm96.781-17.5h-17.5v-8.75c0-4.832 3.918-8.75 8.75-8.75s8.75 3.918 8.75 8.75zm8.75 201.25h-96.25c-2.9258 0.007812-5.8477 0.19531-8.75 0.56641v-4.9414l29.211-21.906c0.59766 0.019531 1.1953 0.03125 1.7969 0.03125h42.984c0.60156 0 1.2031-0.011719 1.7969-0.03125l29.211 21.906zm-134.97-57.18-24.242 4.8477c-1.6953 0.33984-3.25 1.1719-4.4727 2.3945l-17.5 17.5c-1.2188 1.2227-2.0508 2.7773-2.3906 4.4727l-4.9102 24.559-11.758-15.676 6.6484-19.941 22.918-22.914 26.625-5.3242-0.003907-0.003906c2.8047 3.5586 5.8398 6.9258 9.0859 10.086zm31.383 22.441c1.8516 1.1523 3.7656 2.1992 5.7383 3.1289l-21.152 15.859c-2.2031 1.6523-3.5 4.2461-3.5 7v13.875c-6.3008 2.5625-12.199 6.0273-17.5 10.289v-28.707l31.016-24.812zm-7.043 54.258 13.504 40.512c-2.5742 2.5273-4.6016 5.5586-5.957 8.9023l-45.121-6.4453c1.4648-10.016 5.7891-19.398 12.453-27.02s15.387-13.16 25.117-15.949zm6.8047 66.988c1.1094 3.5703 2.9727 6.8594 5.457 9.6523l-17.031 22.707h0.003907c-16.641-6.5547-28.82-21.102-32.34-38.633zm25.074-34.008c-0.8125 0-1.6133 0.042969-2.4062 0.11328l-11.703-35.113h36.316c-3.082 5.3164-4.707 11.355-4.707 17.5s1.625 12.184 4.707 17.5zm35-17.5c0.003906-4.6406 1.8516-9.0859 5.1328-12.367s7.7266-5.1289 12.367-5.1328h60.07l-15.023 18.031h-0.003906c-8.9492 10.766-22.23 16.984-36.23 16.969h-8.8125c-4.6406-0.003906-9.0859-1.8516-12.367-5.1328s-5.1289-7.7266-5.1328-12.367zm82.812-102.27 26.625 5.3242 22.918 22.918 6.6484 19.941-11.758 15.676-4.9102-24.559-0.003907-0.003906c-0.33984-1.6914-1.1719-3.2461-2.3945-4.4688l-17.5-17.5c-1.2227-1.2227-2.7773-2.0547-4.4727-2.3945l-24.242-4.8477c3.25-3.1602 6.2852-6.5273 9.0898-10.086zm21.785-55.234h40.531l39.473 39.473 6.9609 27.844-11.82 11.82-5-20.008h-0.003907c-0.38281-1.5391-1.1758-2.9453-2.2969-4.0664l-35-35c-1.6406-1.6406-3.8711-2.5625-6.1914-2.5625h-29.664c1.4961-5.7383 2.5039-11.59 3.0117-17.5zm-13.883-57.094 19.535-14.656c2.2031-1.6523 3.5-4.2461 3.5-7v-9.7344c2.6758 0.65625 5.4219 0.98828 8.1797 0.98828 3.1289 0 6.25-0.29688 9.3203-0.89062v23.043l-30.391 25.324c-2.4219-6.207-5.8477-11.977-10.145-17.074zm-7.5898-135.41c1.1602 0 2.2734 0.46094 3.0938 1.2812s1.2812 1.9336 1.2812 3.0938c0.027344 11.012 5.207 21.371 14 28l0.22656 0.16797c-4.7617 4.0195-8.5156 9.0938-10.969 14.82-7.8203-12.977-11.969-27.836-12.008-42.988 0-2.418 1.957-4.375 4.375-4.375zm-21.656 1.4648c-0.13672 0.96484-0.21094 1.9375-0.21875 2.9102 0.042969 21.766 7.1016 42.938 20.125 60.375l6.2227 8.2969c0.54297 7.5781 3.5859 14.762 8.6523 20.426v15.902l-18.922 14.195c-7.4883-4.8867-15.969-8.0469-24.828-9.25v-9.3203c0-9.3789-5.0039-18.043-13.125-22.734-8.1211-4.6875-18.129-4.6875-26.25 0-8.1211 4.6914-13.125 13.355-13.125 22.734v8.75h-17.5v-8.75c0-9.3789-5.0039-18.043-13.125-22.734-8.1211-4.6875-18.129-4.6875-26.25 0-8.1211 4.6914-13.125 13.355-13.125 22.734v9.3203c-8.8594 1.2031-17.34 4.3633-24.828 9.25l-18.922-14.195v-15.902c5.0664-5.6641 8.1094-12.848 8.6523-20.426l6.2227-8.2969c13.023-17.438 20.082-38.609 20.125-60.375-0.007812-0.97266-0.082031-1.9453-0.21875-2.9102 45.82-13.621 94.617-13.621 140.44 0zm-162.09-1.4648c1.1602 0 2.2734 0.46094 3.0938 1.2812s1.2812 1.9336 1.2812 3.0938c-0.039062 15.152-4.1875 30.012-12.008 42.992-2.4531-5.7266-6.207-10.805-10.969-14.824l0.22656-0.16797c8.793-6.625 13.973-16.988 14-28 0-2.418 1.957-4.375 4.375-4.375zm-65.805-1.457 4.0781-6.1133c0.64453-0.97266 1.8516-1.4062 2.9688-1.0664 1.1172 0.33984 1.8828 1.3672 1.8828 2.5352v12.785c-0.023438 7.5117 2.0547 14.875 6 21.266 3.9492 6.3867 9.6094 11.539 16.336 14.875 3.8164 1.8945 7.0234 4.8164 9.2617 8.4375 2.2383 3.6211 3.418 7.7969 3.4023 12.055v7.2539c-0.007812 4.4883-1.793 8.7891-4.9648 11.965-3.1758 3.1719-7.4766 4.957-11.965 4.9648-7.8047-0.023438-15.336-2.8711-21.211-8.0117-5.8711-5.1367-9.6914-12.227-10.75-19.961-3.1406-23.348-3.6094-30.496-3.6094-32.68v0.003906c-0.007812-10.078 2.9727-19.93 8.5703-28.309zm330.92 410.95c-45.457 45.555-107.01 71.395-171.36 71.938-64.352 0.54297-126.33-24.258-172.55-69.043-46.215-44.781-72.957-105.95-74.441-170.29-1.4844-64.336 22.402-126.67 66.504-173.54 3.3086 11.77 10.82 21.918 21.109 28.523v34.172c0 2.5977 1.1523 5.0586 3.1484 6.7227l40.668 33.891c-0.039062 0.86328-0.066406 1.7344-0.066406 2.6055v0.53125h-43.75c-2.3203 0-4.5469 0.92188-6.1875 2.5625l-43.75 43.75c-1.1211 1.1211-1.9141 2.5273-2.2969 4.0664l-8.75 35c-0.74609 2.9805 0.125 6.1367 2.2969 8.3125l26.25 26.25c2.2305 2.2266 5.4844 3.0859 8.5234 2.2461 3.0391-0.84375 5.3867-3.2539 6.1523-6.3125l8.1641-32.648 30.723-30.727h32.359c0.69922 1.5 1.4336 2.9766 2.2031 4.4414l-22.402 4.4844c-1.6914 0.33594-3.25 1.1719-4.4688 2.3906l-26.25 26.25c-0.96094 0.96094-1.6836 2.1328-2.1172 3.4219l-8.75 26.25c-0.90625 2.7227-0.42188 5.7188 1.3047 8.0156l26.25 35c2.0703 2.7617 5.5703 4.0469 8.9336 3.2852 3.3672-0.76562 5.9688-3.4336 6.6445-6.8203l8.2305-41.152 13.754-13.754 17.551-3.5117-18.586 14.867c-2.0742 1.6602-3.2812 4.1758-3.2812 6.832v43.75c0 2.2188 0.84766 4.3555 2.3633 5.9727-9.1055 14.16-12.797 31.129-10.398 47.793 2.3945 16.664 10.723 31.902 23.449 42.922 12.727 11.016 29 17.074 45.836 17.062 24.371-0.027344 48.406-5.7031 70.219-16.574l0.17969-0.089843 20.156 8.0625c7.1797 2.8672 15.309 1.9883 21.711-2.3438 6.3984-4.332 10.234-11.559 10.234-19.285v-6.1914c0-6.5703-2.9453-12.793-8.0273-16.961-5.0781-4.1641-11.762-5.832-18.203-4.543l-27.137 5.4258h-51.633c-4.832 0-8.75-3.918-8.75-8.75s3.918-8.75 8.75-8.75h61.312c19.195 0.023438 37.402-8.5039 49.676-23.266l26.984-32.383c2.1719-2.6094 2.6406-6.2383 1.1992-9.3125-1.4375-3.0742-4.5273-5.0391-7.9219-5.0391v-17.5c0-2.6562-1.207-5.1719-3.2812-6.832l-18.582-14.867 17.555 3.5117 13.754 13.754 8.2305 41.152-0.003906-0.003906c0.67578 3.3828 3.2773 6.0547 6.6445 6.8164 3.3633 0.76172 6.8633-0.52344 8.9336-3.2812l26.25-35c1.7227-2.2969 2.2109-5.293 1.3008-8.0156l-8.75-26.25c-0.42969-1.2891-1.1523-2.4609-2.1133-3.4219l-26.25-26.25c-1.2227-1.2227-2.7773-2.0547-4.4727-2.3945l-22.402-4.4844c0.76953-1.4609 1.5039-2.9414 2.2031-4.4414h32.359l30.723 30.723 8.1641 32.648v0.003907c0.76562 3.0586 3.1133 5.4688 6.1523 6.3125 3.0391 0.83984 6.293-0.019532 8.5234-2.2461l26.25-26.25c2.1719-2.1758 3.043-5.332 2.2969-8.3125l-8.75-35c-0.38281-1.5391-1.1758-2.9453-2.2969-4.0664l-43.75-43.75c-1.6406-1.6367-3.8672-2.5586-6.1875-2.5547h-43.75v-0.53125c0-0.875-0.03125-1.7422-0.066406-2.6055l40.668-33.891c1.9961-1.6641 3.1484-4.125 3.1484-6.7227v-34.172c10.289-6.6055 17.801-16.754 21.109-28.523 43.562 46.395 67.363 107.92 66.363 171.55-1.0039 63.637-26.727 124.38-71.73 169.38zm-117.29 4.7422c1.3008-0.26172 2.6484 0.074219 3.6758 0.91797 1.0273 0.83984 1.6211 2.0977 1.6211 3.4258v6.1914c0 1.9219-0.95703 3.7188-2.5469 4.7969-1.5938 1.0781-3.6133 1.2969-5.3984 0.58203l-18.305-7.3203v-4.4023z"/>
  <path d="m280 262.5h17.5v-17.5h-8.75v-8.75h-17.5v17.5c0 2.3203 0.92188 4.5469 2.5625 6.1875s3.8672 2.5625 6.1875 2.5625z"/>
  <path d="m297.5 271.25v17.5c0 2.3203 0.92188 4.5469 2.5625 6.1875s3.8672 2.5625 6.1875 2.5625h17.5v-17.5h-8.75v-8.75z"/>
  <path d="m428.75 253.75v-17.5h-17.5v8.75h-8.75v17.5h17.5c2.3203 0 4.5469-0.92188 6.1875-2.5625s2.5625-3.8672 2.5625-6.1875z"/>
  <path d="m402.5 288.75v-17.5h-17.5v8.75h-8.75v17.5h17.5c2.3203 0 4.5469-0.92188 6.1875-2.5625s2.5625-3.8672 2.5625-6.1875z"/>
  <use x="70" y="576.40625" xlink:href="#v"/>
  <use x="74.011719" y="576.40625" xlink:href="#c"/>
  <use x="76.710938" y="576.40625" xlink:href="#b"/>
  <use x="80.417969" y="576.40625" xlink:href="#f"/>
  <use x="84.109375" y="576.40625" xlink:href="#d"/>
  <use x="86.722656" y="576.40625" xlink:href="#b"/>
  <use x="90.433594" y="576.40625" xlink:href="#j"/>
  <use x="96.25" y="576.40625" xlink:href="#i"/>
  <use x="100.167969" y="576.40625" xlink:href="#h"/>
  <use x="105.636719" y="576.40625" xlink:href="#g"/>
  <use x="109.550781" y="576.40625" xlink:href="#a"/>
  <use x="113.308594" y="576.40625" xlink:href="#e"/>
  <use x="117.199219" y="576.40625" xlink:href="#u"/>
  <use x="121.113281" y="576.40625" xlink:href="#t"/>
  <use x="124.371094" y="576.40625" xlink:href="#f"/>
  <use x="128.058594" y="576.40625" xlink:href="#s"/>
  <use x="131.695312" y="576.40625" xlink:href="#a"/>
  <use x="135.453125" y="576.40625" xlink:href="#c"/>
  <use x="138.152344" y="576.40625" xlink:href="#e"/>
  <use x="70" y="581.875" xlink:href="#r"/>
  <use x="72.378906" y="581.875" xlink:href="#c"/>
  <use x="75.078125" y="581.875" xlink:href="#a"/>
  <use x="78.832031" y="581.875" xlink:href="#q"/>
  <use x="86.4375" y="581.875" xlink:href="#d"/>
  <use x="89.050781" y="581.875" xlink:href="#p"/>
  <use x="92.941406" y="581.875" xlink:href="#b"/>
  <use x="98.554688" y="581.875" xlink:href="#o"/>
  <use x="103.132812" y="581.875" xlink:href="#a"/>
  <use x="106.890625" y="581.875" xlink:href="#n"/>
  <use x="110.785156" y="581.875" xlink:href="#e"/>
  <use x="116.582031" y="581.875" xlink:href="#m"/>
  <use x="120.589844" y="581.875" xlink:href="#c"/>
  <use x="123.285156" y="581.875" xlink:href="#a"/>
  <use x="127.042969" y="581.875" xlink:href="#l"/>
  <use x="128.917969" y="581.875" xlink:href="#b"/>
  <use x="132.625" y="581.875" xlink:href="#k"/>
  <use x="135.867188" y="581.875" xlink:href="#d"/>
 </g>
</svg>
